<svg xmlns="http://www.w3.org/2000/svg" width="40.345" height="16" viewBox="0 0 40.345 16">
    <defs>
        <style>
            .cls-1{fill:#56c5d0}.cls-2{fill:#faa61a}
        </style>
    </defs>
    <g id="mci-hamrahe-aval-logotype-02" transform="translate(.033 .1)">
        <path id="Path_7145" d="M10.862 14.172a1.9 1.9 0 0 1-.69.464c-2.019.929-4.03 1.875-6.047 2.811a4.683 4.683 0 0 1-2.044.417 2.014 2.014 0 0 1-1.366-.571 2.819 2.819 0 0 1-.666-1.46A3.725 3.725 0 0 1 .3 13.466a2.877 2.877 0 0 1 1.376-1.289q2.868-1.345 5.739-2.689v2.064Q4.78 12.8 2.151 14.06a1.592 1.592 0 0 0-.718.584 1.022 1.022 0 0 0-.01 1.05.943.943 0 0 0 .815.35 2.41 2.41 0 0 0 .819-.142q3.17-1.486 6.337-2.977 0-4.813-.01-9.623c.626-.268 1.249-.536 1.875-.8v10.544a1.6 1.6 0 0 1-.397 1.126z" class="cls-1" transform="translate(0 -2.535)"/>
        <path id="Path_7146" d="M771.577 11.864c-.621.286-1.252.551-1.877.829V2.427c.623-.278 1.249-.551 1.875-.827.002 3.42-.005 6.842.002 10.264z" class="cls-1" transform="translate(-750.618 -1.658)"/>
        <path id="Path_7147" d="M1184.68 10.193q-.939.436-1.88.869V.767c.626-.291 1.254-.579 1.88-.867z" class="cls-2" transform="translate(-1153.46)"/>
        <path id="Path_7148" d="M1049.078 21.7q-1.959.913-3.919 1.83v-1.1c.983-.5 1.957-1.026 2.945-1.522a1.376 1.376 0 0 0 .68-.73c.027-.219.005-.442.012-.661a2.123 2.123 0 0 0-.045-.628 2.49 2.49 0 0 0-.42-.725 9.247 9.247 0 0 0-1.423-1.363 24.742 24.742 0 0 0-2.603-1.801v1.823a21.267 21.267 0 0 0-2.337 2.771 2.967 2.967 0 0 0-.581 1.331 2.56 2.56 0 0 0 .206 1.614 1.2 1.2 0 0 0 .924.581 4.023 4.023 0 0 0 1.785-.33c-.01.385.005.77-.007 1.155q-4.939 2.291-9.866 4.6v2.084l14.654-6.844c-.005-.697-.002-1.385-.005-2.085zm-6.149-.258c-.169-.017-.385-.1-.385-.305a.9.9 0 0 1 .243-.514c.5-.5 1-1.013 1.507-1.515 0 .725 0 1.45.007 2.178a4.089 4.089 0 0 1-1.371.161zm2.205-3.022a3.721 3.721 0 0 1 1.358.422.823.823 0 0 1 .439.621.948.948 0 0 1-.372.638 5.075 5.075 0 0 1-1.425.792c-.002-.82.001-1.644.001-2.468z" class="cls-2" transform="translate(-1008.769 -14.725)"/>
        <path id="Path_7149" d="M857.329 237.786a1.664 1.664 0 0 0-.435-1.073 9.036 9.036 0 0 0-1.463-1.411 25.927 25.927 0 0 0-2.6-1.8v1.818a22.666 22.666 0 0 0-2.2 2.56 4.36 4.36 0 0 0-.69 1.3 2.914 2.914 0 0 0 .129 1.788 1.213 1.213 0 0 0 .991.658 3.8 3.8 0 0 0 1.763-.348c1.247-.6 2.488-1.222 3.735-1.825a1.423 1.423 0 0 0 .75-.775c.037-.298.01-.596.02-.892zm-4.286 1.813a4.506 4.506 0 0 1-1.3.385.5.5 0 0 1-.494-.189c-.159-.226-.015-.509.107-.718a6.877 6.877 0 0 1 1.44-1.5c.467-.385.956-.747 1.455-1.1a4.228 4.228 0 0 1 1.614 1.612 23.535 23.535 0 0 1-2.823 1.511z" class="cls-2" transform="translate(-828.795 -227.799)"/>
        <path id="Path_7150" d="M462.931 200.21a5.405 5.405 0 0 0-2.193-3.233 3.788 3.788 0 0 0-2.235-.551 2.128 2.128 0 0 0-1.564 1.053 4.493 4.493 0 0 0-.484 2.516 1.5 1.5 0 0 0 .231 1.026 1.238 1.238 0 0 0 1.033.37 6.2 6.2 0 0 0 2.026-.521 14.347 14.347 0 0 0 1.828-.9c.007.248.012.5.012.747q-2.943 1.375-5.885 2.744v2.088c1.927-.894 3.852-1.8 5.781-2.684a2.131 2.131 0 0 0 1.055-.782 2.7 2.7 0 0 0 .395-1.873zm-5.257-.559a1.333 1.333 0 0 1 .025-.879.9.9 0 0 1 .648-.484 2.188 2.188 0 0 1 1.2 0 .774.774 0 0 1 .477.459c-.785.298-1.565.608-2.35.904z" class="cls-1" transform="translate(-444.416 -191.636)"/>
    </g>
</svg>
