<svg xmlns="http://www.w3.org/2000/svg" width="63.997" height="64" viewBox="0 0 63.997 64">
    <g>
        <path fill="#651fff" d="M103.286-995.065a27.969 27.969 0 0 0-27.937 27.937 27.969 27.969 0 0 0 27.937 27.938 27.969 27.969 0 0 0 27.937-27.938 27.969 27.969 0 0 0-27.937-27.937zm0 45.2a17.285 17.285 0 0 1-17.265-17.265 17.285 17.285 0 0 1 17.265-17.264 17.284 17.284 0 0 1 17.264 17.264 17.285 17.285 0 0 1-17.264 17.267z" transform="translate(-.005) translate(-67.22 995.065)"/>
        <path fill="#ff9100" d="M73.84-940.53a7.243 7.243 0 0 0-7.24 7.243 7.242 7.242 0 0 0 7.242 7.242 7.243 7.243 0 0 0 7.243-7.243 7.243 7.243 0 0 0-7.246-7.243z" transform="translate(-.005) translate(-66.595 990.044)"/>
    </g>
</svg>
