<svg xmlns="http://www.w3.org/2000/svg" id="scp-logo-hamrah_irancell" width="24" height="24" viewBox="0 0 24 24">
    <defs>
        <style>
            .irancell-1{fill:#ffbe00}.irancell-2{fill:#005c87}
        </style>
    </defs>
    <g id="logo-mtn-irancell">
        <path id="Path_7153" d="M0 0h24v16.222H0z" class="irancell-1"/>
        <path id="Path_7154" d="M0 0h24v16.222H0zm0 16.889h24V24H0z" class="irancell-1"/>
        <ellipse id="Ellipse_668" cx="11.555" cy="4.778" class="irancell-2" rx="11.555" ry="4.778" transform="translate(.445 3.556)"/>
        <path id="Path_7155" fill="#fff" d="M405.214 543.6v3.731l-.716.051-.077-3.706zm-1.866 4.646v-.077l.434-.434h.077l.434.434v.077l-.434.434h-.077zm-.945 0v-.077l.434-.434h.077l.434.434v.077l-.434.434h-.077zm.256-1.886h.128a1.408 1.408 0 0 0 .249-.018.61.61 0 0 0 .148-.044.157.157 0 0 0 .071-.057.122.122 0 0 0 .018-.062q0-.1-.022-.342c-.015-.163-.042-.4-.079-.705l.767-.128c.014.1.027.2.038.3l.033.309c.011.099.018.189.023.271s.007.145.007.189a1.559 1.559 0 0 1-.1.6 1.036 1.036 0 0 1-.278.4 1.085 1.085 0 0 1-.406.218 1.774 1.774 0 0 1-.491.066h-.1a.9.9 0 0 1-.284-.041.5.5 0 0 1-.212-.143 1.581 1.581 0 0 1-.5 1.132 1.893 1.893 0 0 1-1.225.406l-.179-.844a4.023 4.023 0 0 0 .555-.161 1.884 1.884 0 0 0 .348-.171.633.633 0 0 0 .185-.171.407.407 0 0 0 .064-.161 4.951 4.951 0 0 0-.057-.56c-.037-.271-.1-.612-.174-1.025l.767-.2c.045.211.085.379.123.5a.947.947 0 0 0 .13.286.33.33 0 0 0 .181.128 1.038 1.038 0 0 0 .279.03zm-2.019-2.76v3.731l-.716.051-.077-3.706zm-1.252.512v.077l-.46.46h-.077l-.46-.46v-.077l.46-.46h.077zm-1.3 3.245a2 2 0 0 1-.222-.013.974.974 0 0 1-.225-.053.77.77 0 0 1-.207-.117.627.627 0 0 1-.163-.2.919.919 0 0 1-.266.268.689.689 0 0 1-.4.115.87.87 0 0 1-.183-.02.986.986 0 0 1-.194-.064.9.9 0 0 1-.185-.11.725.725 0 0 1-.154-.163.7.7 0 0 1-.337.293 1.143 1.143 0 0 1-.379.064.86.86 0 0 1-.458-.1.953.953 0 0 1-.284-.278.829.829 0 0 1-.337.289 1.278 1.278 0 0 1-.531.095h-.1a.981.981 0 0 1-.3-.041.48.48 0 0 1-.212-.138v.128a1.357 1.357 0 0 1-.143.626 1.4 1.4 0 0 1-.394.473 1.891 1.891 0 0 1-.586.3 2.343 2.343 0 0 1-.718.108 1.608 1.608 0 0 1-1.13-.35 1.3 1.3 0 0 1-.379-1 3.49 3.49 0 0 1 .061-.544 5.241 5.241 0 0 1 .271-.912l.613.179c-.037.154-.068.289-.092.406s-.043.22-.057.307a2.347 2.347 0 0 0-.031.386.553.553 0 0 0 .041.214.415.415 0 0 0 .135.169.7.7 0 0 0 .245.112 1.416 1.416 0 0 0 .37.041 2.177 2.177 0 0 0 .46-.044 1.451 1.451 0 0 0 .335-.11.663.663 0 0 0 .207-.148.244.244 0 0 0 .071-.159l-.077-3.68.793-.077v2.223a.82.82 0 0 0 .036.268.358.358 0 0 0 .1.163.392.392 0 0 0 .161.082.887.887 0 0 0 .209.023h.1a.979.979 0 0 0 .3-.036.34.34 0 0 0 .179-.13.61.61 0 0 0 .09-.263 3.278 3.278 0 0 0 .022-.439h.69v.536c0 .057 0 .109-.007.154a.292.292 0 0 0 .169.148.7.7 0 0 0 .2.031.377.377 0 0 0 .179-.038.283.283 0 0 0 .117-.138.874.874 0 0 0 .066-.266 3.809 3.809 0 0 0 .02-.427h.69V546.057c0 .061 0 .114-.007.159a.394.394 0 0 0 .179.125.669.669 0 0 0 .189.028.321.321 0 0 0 .15-.031.214.214 0 0 0 .092-.13 1.257 1.257 0 0 0 .048-.291c.01-.128.015-.3.015-.518h.69v.553a.422.422 0 0 0 .1.33.549.549 0 0 0 .355.09h.128a1.392 1.392 0 0 0 .247-.018.621.621 0 0 0 .148-.044.156.156 0 0 0 .071-.057.122.122 0 0 0 .018-.062q0-.1-.022-.342c-.015-.163-.042-.4-.079-.705l.767-.128c.014.1.027.2.038.3l.033.309c.011.099.018.189.023.271s.007.145.007.189a1.559 1.559 0 0 1-.1.6 1.035 1.035 0 0 1-.278.4 1.086 1.086 0 0 1-.406.218 1.772 1.772 0 0 1-.491.066h-.1z" transform="translate(-385.444 -537.802)"/>
        <g id="Group_2186" transform="translate(3.111 18)">
            <path id="Path_7156" d="M303.559 1688.934l.307-1.434h-4.321l-.29 1.434h1.439l-.486 2.324h1.633l.485-2.324zm-4.487-1.434h-2.142l-1.286 2.785-.22-2.785h-2.288l-1.436 4.782h1.573l.935-3.086.217 3.086h1.219l1.793-3.308-.861 3.308h1.5zm10.653 0h-1.5l-.791 2.989-1.6-2.989h-1.426l-1 4.782h1.505l.57-2.823 1.443 2.823h1.575z" class="irancell-2" transform="translate(-291.7 -1687.5)"/>
            <path id="Path_7157" fill="#c21906" d="M1068.949 2071.3l-.149.683h1.635l.147-.683z" transform="translate(-1060.511 -2067.206)"/>
        </g>
    </g>
</svg>
